<svg xmlns="http://www.w3.org/2000/svg" width="168" height="29" viewBox="0 0 168 29"><path d="M168.234,29H.234V11.677l.03.027,7.327,6.349L5.4,27.494a.741.741,0,0,0,.141.641.775.775,0,0,0,.6.294.753.753,0,0,0,.392-.111l8.3-5.006,8.3,5.006a.76.76,0,0,0,.392.112.775.775,0,0,0,.6-.294.742.742,0,0,0,.141-.642l-2.2-9.442,7.325-6.347a.762.762,0,0,0-.434-1.334L19.3,9.542,15.53.614a.76.76,0,0,0-1.4,0L10.355,9.541.7,10.37a.751.751,0,0,0-.464.208V0h168V29Zm-15.113-5.688h0l8.3,5.005a.761.761,0,0,0,.393.112.774.774,0,0,0,.6-.293.743.743,0,0,0,.141-.643l-2.2-9.442,7.326-6.347a.762.762,0,0,0-.434-1.334l-9.658-.83L153.822.614a.76.76,0,0,0-1.4,0l-3.772,8.927-9.658.829a.761.761,0,0,0-.434,1.334l7.327,6.349-2.2,9.442a.741.741,0,0,0,.141.641.775.775,0,0,0,.6.294.753.753,0,0,0,.392-.111l8.3-5.005Zm-34.573,0h0l8.3,5.005a.759.759,0,0,0,.392.112.775.775,0,0,0,.6-.294.742.742,0,0,0,.141-.642l-2.2-9.442,7.325-6.347a.761.761,0,0,0-.434-1.334l-9.658-.83L119.249.614a.76.76,0,0,0-1.4,0l-3.773,8.927-9.658.829a.761.761,0,0,0-.434,1.334l7.328,6.349-2.2,9.442a.741.741,0,0,0,.141.641.776.776,0,0,0,.6.294.755.755,0,0,0,.393-.111l8.3-5.005Zm-34.574,0h0l8.3,5.005a.761.761,0,0,0,.393.112.774.774,0,0,0,.6-.294.742.742,0,0,0,.141-.642l-2.2-9.442,7.326-6.347a.762.762,0,0,0-.434-1.334l-9.658-.83L84.676.614a.759.759,0,0,0-1.4,0L79.5,9.541l-9.658.829A.761.761,0,0,0,69.41,11.7l7.327,6.349-2.2,9.442a.741.741,0,0,0,.141.641.775.775,0,0,0,.6.294.753.753,0,0,0,.392-.111l8.3-5.005Zm-34.573,0h0l8.3,5.005a.759.759,0,0,0,.392.112.775.775,0,0,0,.6-.294.742.742,0,0,0,.141-.642l-2.2-9.442,7.326-6.347a.762.762,0,0,0-.434-1.334l-9.658-.83L50.1.614a.76.76,0,0,0-1.4,0L44.929,9.541l-9.658.829a.761.761,0,0,0-.434,1.334l7.327,6.349-2.2,9.442a.74.74,0,0,0,.141.641.775.775,0,0,0,.6.294.753.753,0,0,0,.392-.111l8.3-5.005Z" transform="translate(-0.234)" fill="#fff"/></svg>